<svg xmlns="http://www.w3.org/2000/svg" width="193.485" height="10.117" viewBox="-8.194 -0.058 193.485 10.117" enable-background="new -8.194 -0.058 193.485 10.117"><g fill="#fff"><path d="M1.366 4.996C1.366 6.65.96 7.908.15 8.768c-.812.86-2 1.29-3.564 1.29-1.54 0-2.723-.434-3.546-1.297s-1.234-2.124-1.234-3.778c0-1.635.41-2.885 1.227-3.747C-6.15.373-4.96-.058-3.4-.058c1.563 0 2.75.428 3.556 1.284.807.854 1.21 2.112 1.21 3.77zm-6.763 0c0 1.9.662 2.85 1.982 2.85.673 0 1.17-.23 1.496-.69.326-.462.49-1.183.49-2.16 0-.982-.165-1.708-.495-2.175-.33-.467-.822-.702-1.477-.702-1.33 0-1.995.96-1.995 2.878zM14.06 3.22c0 1.1-.324 1.946-.97 2.546-.65.6-1.57.897-2.76.897h-.747v3.26H6.928V.093h3.4c1.242 0 2.174.27 2.797.814s.935 1.315.935 2.314zM9.583 4.5h.485c.398 0 .716-.11.952-.336.235-.225.353-.534.353-.928 0-.664-.368-.995-1.103-.995h-.686v2.258zM25.25 9.923h-5.836V.093h5.835v2.13h-3.18V3.77h2.944v2.132H22.07v1.854h3.18v2.167zM40.116 9.923h-3.482l-3.59-6.925h-.062c.085 1.09.128 1.92.128 2.494v4.43h-2.353V.093h3.47l3.576 6.83h.04c-.062-.988-.094-1.784-.094-2.385V.094h2.365v9.83zM52.453 6.94c0 .606-.154 1.147-.463 1.622-.31.475-.755.84-1.338 1.102-.582.262-1.267.396-2.05.396-.655 0-1.204-.046-1.647-.138s-.906-.253-1.385-.482V7.072c.507.26 1.034.463 1.58.61.547.145 1.05.217 1.507.217.395 0 .684-.068.867-.206.183-.137.276-.314.276-.528 0-.135-.037-.252-.11-.352-.074-.102-.192-.204-.356-.307-.163-.104-.6-.314-1.308-.63-.64-.294-1.12-.576-1.442-.85-.32-.273-.56-.587-.713-.94-.154-.355-.23-.774-.23-1.258 0-.907.33-1.61.988-2.12.66-.505 1.564-.76 2.715-.76 1.018 0 2.056.236 3.113.707l-.813 2.05c-.92-.42-1.712-.633-2.38-.633-.345 0-.597.06-.753.182-.157.12-.235.272-.235.45 0 .193.1.366.3.518.2.153.74.43 1.623.834.847.38 1.436.79 1.765 1.226.325.44.49.992.49 1.655zM66.183 9.923h-2.668V5.917H60.43v4.006h-2.67V.093h2.67v3.644h3.085V.094h2.668v9.83zM72.094 9.923V.093h2.668v9.83h-2.668zM83.29 9.923h-2.615V.093h5.81v2.13H83.29V4.1h2.944v2.13H83.29v3.693zM96.22 9.923h-2.655V2.267h-2.398V.094h7.447v2.172H96.22v7.657z"/></g><g fill="#fff"><path d="M113.14 9.923h-5.473V.108h5.472v1.014h-4.33v3.162h4.067V5.29h-4.068v3.613h4.33v1.02zM123.23 9.923h-1.304l-5.364-8.238h-.054c.072.967.107 1.853.107 2.66v5.578h-1.054V.108h1.29l5.35 8.204h.055c-.01-.12-.03-.51-.06-1.165s-.043-1.124-.034-1.406V.11h1.068v9.815zM129.197 9.923h-1.142v-8.8h-3.108V.107h7.358v1.014h-3.108v8.8zM139.5 9.923h-5.47V.108h5.47v1.014h-4.33v3.162h4.07V5.29h-4.07v3.613h4.33v1.02zM143.065 5.84v4.083h-1.142V.108h2.692c1.204 0 2.094.23 2.67.69.573.462.86 1.156.86 2.082 0 1.298-.657 2.175-1.973 2.632l2.665 4.41h-1.35l-2.376-4.08h-2.045zm0-.98h1.563c.807 0 1.396-.16 1.773-.48.376-.32.564-.8.564-1.44 0-.648-.19-1.116-.574-1.402-.383-.286-.997-.43-1.843-.43h-1.483V4.86zM156.896 2.968c0 .994-.34 1.758-1.018 2.293-.678.536-1.647.803-2.91.803h-1.154v3.86h-1.142V.108h2.545c2.452 0 3.68.953 3.68 2.86zm-5.083 2.115h1.026c1.01 0 1.743-.163 2.195-.49.452-.327.678-.85.678-1.57 0-.65-.213-1.133-.638-1.45-.426-.32-1.088-.478-1.987-.478h-1.275v3.988zM160.34 5.84v4.083h-1.143V.108h2.692c1.203 0 2.093.23 2.668.69.574.462.862 1.156.862 2.082 0 1.298-.658 2.175-1.974 2.632l2.665 4.41h-1.35l-2.375-4.08h-2.046zm0-.98h1.562c.807 0 1.396-.16 1.773-.48.375-.32.563-.8.563-1.44 0-.648-.19-1.116-.574-1.402-.383-.286-.997-.43-1.843-.43h-1.482V4.86zM167.944 9.923V.108h1.142v9.815h-1.142zM177.564 7.312c0 .863-.313 1.537-.94 2.02-.626.484-1.477.727-2.55.727-1.165 0-2.06-.15-2.687-.45V8.506c.402.17.84.304 1.315.402.475.097.944.146 1.41.146.76 0 1.334-.144 1.72-.433s.576-.69.576-1.205c0-.34-.068-.62-.204-.836-.137-.217-.365-.418-.686-.602-.32-.184-.807-.39-1.46-.624-.913-.327-1.565-.714-1.957-1.162-.39-.447-.587-1.032-.587-1.752 0-.756.284-1.358.853-1.806.57-.448 1.32-.67 2.256-.67.977 0 1.874.178 2.692.536l-.355.994c-.812-.34-1.6-.51-2.364-.51-.604 0-1.076.13-1.417.39-.34.26-.51.62-.51 1.08 0 .34.06.62.187.836.126.217.337.416.635.598.298.18.753.38 1.366.6 1.03.368 1.738.762 2.125 1.183.387.42.58.967.58 1.64zM185.29 9.923h-5.47V.108h5.47v1.014h-4.33v3.162h4.07V5.29h-4.07v3.613h4.33v1.02z"/></g></svg>